<?xml version="1.0" encoding="utf-8"?>
<svg version="1.1" xmlns:xlink="http://www.w3.org/1999/xlink" width="1285px" height="621px" xmlns="http://www.w3.org/2000/svg">
  <g transform="matrix(1 0 0 1 -96 -175 )">
    <path d="M 96 175  L 1381 175  L 1381 796  L 96 796  L 96 175  " fill-rule="nonzero" fill="#cccccc" stroke="none" />
    <path d="M 139 218  L 1338 218  L 1338 753  L 139 753  L 139 218  " fill-rule="nonzero" fill="#ffffff" stroke="none" />
    <path d="M 810.7750000000001 361.29999999999995  C 784.6930000000001 361.29999999999995  764.2 340.80699999999996  764.2 314.72499999999997  C 764.2 288.643  784.6930000000001 268.15  810.7750000000001 268.15  C 836.8570000000001 268.15  857.35 288.643  857.35 314.72499999999997  C 857.35 340.80699999999996  836.8570000000001 361.29999999999995  810.7750000000001 361.29999999999995  " fill-rule="nonzero" fill="#cccccc" stroke="none" />
    <path d="M 155 738  L 155 460.79999999999995  L 447 334.79999999999995  L 855.8 591.8596108949416  L 1089.4 410.4  L 1323 591.8596108949416  L 1323 738  L 155 738  " fill-rule="nonzero" fill="#169bd5" stroke="none" />
  </g>
</svg>